<?xml version="1.0"?><svg xmlns="http://www.w3.org/2000/svg" width="160" height="468"><rect x="0" y="0" width="100%" height="100%" fill="rgb(116, 185, 255)" /><path d="M0 53 C 28 0, 52 0, 80 53 S 132 106, 160 53 S 212 0, 240, 53" fill="none" stroke="#222" style="opacity:0.046;stroke-width:13px;" transform="translate(-40, -79.5)" /><path d="M0 53 C 28 0, 52 0, 80 53 S 132 106, 160 53 S 212 0, 240, 53" fill="none" stroke="#222" style="opacity:0.046;stroke-width:13px;" transform="translate(-40, 388.5)" /><path d="M0 53 C 28 0, 52 0, 80 53 S 132 106, 160 53 S 212 0, 240, 53" fill="none" stroke="#222" style="opacity:0.063333333333333;stroke-width:13px;" transform="translate(-40, -66.5)" /><path d="M0 53 C 28 0, 52 0, 80 53 S 132 106, 160 53 S 212 0, 240, 53" fill="none" stroke="#222" style="opacity:0.063333333333333;stroke-width:13px;" transform="translate(-40, 401.5)" /><path d="M0 53 C 28 0, 52 0, 80 53 S 132 106, 160 53 S 212 0, 240, 53" fill="none" stroke="#ddd" style="opacity:0.072;stroke-width:13px;" transform="translate(-40, -53.5)" /><path d="M0 53 C 28 0, 52 0, 80 53 S 132 106, 160 53 S 212 0, 240, 53" fill="none" stroke="#ddd" style="opacity:0.072;stroke-width:13px;" transform="translate(-40, 414.5)" /><path d="M0 53 C 28 0, 52 0, 80 53 S 132 106, 160 53 S 212 0, 240, 53" fill="none" stroke="#ddd" style="opacity:0.10666666666667;stroke-width:13px;" transform="translate(-40, -40.5)" /><path d="M0 53 C 28 0, 52 0, 80 53 S 132 106, 160 53 S 212 0, 240, 53" fill="none" stroke="#ddd" style="opacity:0.10666666666667;stroke-width:13px;" transform="translate(-40, 427.5)" /><path d="M0 53 C 28 0, 52 0, 80 53 S 132 106, 160 53 S 212 0, 240, 53" fill="none" stroke="#222" style="opacity:0.028666666666667;stroke-width:13px;" transform="translate(-40, -27.5)" /><path d="M0 53 C 28 0, 52 0, 80 53 S 132 106, 160 53 S 212 0, 240, 53" fill="none" stroke="#222" style="opacity:0.028666666666667;stroke-width:13px;" transform="translate(-40, 440.5)" /><path d="M0 53 C 28 0, 52 0, 80 53 S 132 106, 160 53 S 212 0, 240, 53" fill="none" stroke="#222" style="opacity:0.098;stroke-width:13px;" transform="translate(-40, -14.5)" /><path d="M0 53 C 28 0, 52 0, 80 53 S 132 106, 160 53 S 212 0, 240, 53" fill="none" stroke="#222" style="opacity:0.098;stroke-width:13px;" transform="translate(-40, 453.5)" /><path d="M0 53 C 28 0, 52 0, 80 53 S 132 106, 160 53 S 212 0, 240, 53" fill="none" stroke="#ddd" style="opacity:0.037333333333333;stroke-width:13px;" transform="translate(-40, -1.5)" /><path d="M0 53 C 28 0, 52 0, 80 53 S 132 106, 160 53 S 212 0, 240, 53" fill="none" stroke="#ddd" style="opacity:0.037333333333333;stroke-width:13px;" transform="translate(-40, 466.5)" /><path d="M0 53 C 28 0, 52 0, 80 53 S 132 106, 160 53 S 212 0, 240, 53" fill="none" stroke="#222" style="opacity:0.11533333333333;stroke-width:13px;" transform="translate(-40, 11.5)" /><path d="M0 53 C 28 0, 52 0, 80 53 S 132 106, 160 53 S 212 0, 240, 53" fill="none" stroke="#222" style="opacity:0.11533333333333;stroke-width:13px;" transform="translate(-40, 479.5)" /><path d="M0 53 C 28 0, 52 0, 80 53 S 132 106, 160 53 S 212 0, 240, 53" fill="none" stroke="#222" style="opacity:0.080666666666667;stroke-width:13px;" transform="translate(-40, 24.5)" /><path d="M0 53 C 28 0, 52 0, 80 53 S 132 106, 160 53 S 212 0, 240, 53" fill="none" stroke="#222" style="opacity:0.080666666666667;stroke-width:13px;" transform="translate(-40, 492.5)" /><path d="M0 53 C 28 0, 52 0, 80 53 S 132 106, 160 53 S 212 0, 240, 53" fill="none" stroke="#222" style="opacity:0.098;stroke-width:13px;" transform="translate(-40, 37.5)" /><path d="M0 53 C 28 0, 52 0, 80 53 S 132 106, 160 53 S 212 0, 240, 53" fill="none" stroke="#222" style="opacity:0.098;stroke-width:13px;" transform="translate(-40, 505.5)" /><path d="M0 53 C 28 0, 52 0, 80 53 S 132 106, 160 53 S 212 0, 240, 53" fill="none" stroke="#222" style="opacity:0.028666666666667;stroke-width:13px;" transform="translate(-40, 50.5)" /><path d="M0 53 C 28 0, 52 0, 80 53 S 132 106, 160 53 S 212 0, 240, 53" fill="none" stroke="#222" style="opacity:0.028666666666667;stroke-width:13px;" transform="translate(-40, 518.5)" /><path d="M0 53 C 28 0, 52 0, 80 53 S 132 106, 160 53 S 212 0, 240, 53" fill="none" stroke="#222" style="opacity:0.046;stroke-width:13px;" transform="translate(-40, 63.5)" /><path d="M0 53 C 28 0, 52 0, 80 53 S 132 106, 160 53 S 212 0, 240, 53" fill="none" stroke="#222" style="opacity:0.046;stroke-width:13px;" transform="translate(-40, 531.5)" /><path d="M0 53 C 28 0, 52 0, 80 53 S 132 106, 160 53 S 212 0, 240, 53" fill="none" stroke="#222" style="opacity:0.11533333333333;stroke-width:13px;" transform="translate(-40, 76.5)" /><path d="M0 53 C 28 0, 52 0, 80 53 S 132 106, 160 53 S 212 0, 240, 53" fill="none" stroke="#222" style="opacity:0.11533333333333;stroke-width:13px;" transform="translate(-40, 544.5)" /><path d="M0 53 C 28 0, 52 0, 80 53 S 132 106, 160 53 S 212 0, 240, 53" fill="none" stroke="#ddd" style="opacity:0.02;stroke-width:13px;" transform="translate(-40, 89.5)" /><path d="M0 53 C 28 0, 52 0, 80 53 S 132 106, 160 53 S 212 0, 240, 53" fill="none" stroke="#ddd" style="opacity:0.02;stroke-width:13px;" transform="translate(-40, 557.5)" /><path d="M0 53 C 28 0, 52 0, 80 53 S 132 106, 160 53 S 212 0, 240, 53" fill="none" stroke="#ddd" style="opacity:0.054666666666667;stroke-width:13px;" transform="translate(-40, 102.5)" /><path d="M0 53 C 28 0, 52 0, 80 53 S 132 106, 160 53 S 212 0, 240, 53" fill="none" stroke="#ddd" style="opacity:0.054666666666667;stroke-width:13px;" transform="translate(-40, 570.5)" /><path d="M0 53 C 28 0, 52 0, 80 53 S 132 106, 160 53 S 212 0, 240, 53" fill="none" stroke="#ddd" style="opacity:0.124;stroke-width:13px;" transform="translate(-40, 115.5)" /><path d="M0 53 C 28 0, 52 0, 80 53 S 132 106, 160 53 S 212 0, 240, 53" fill="none" stroke="#ddd" style="opacity:0.124;stroke-width:13px;" transform="translate(-40, 583.5)" /><path d="M0 53 C 28 0, 52 0, 80 53 S 132 106, 160 53 S 212 0, 240, 53" fill="none" stroke="#222" style="opacity:0.063333333333333;stroke-width:13px;" transform="translate(-40, 128.5)" /><path d="M0 53 C 28 0, 52 0, 80 53 S 132 106, 160 53 S 212 0, 240, 53" fill="none" stroke="#222" style="opacity:0.063333333333333;stroke-width:13px;" transform="translate(-40, 596.5)" /><path d="M0 53 C 28 0, 52 0, 80 53 S 132 106, 160 53 S 212 0, 240, 53" fill="none" stroke="#ddd" style="opacity:0.054666666666667;stroke-width:13px;" transform="translate(-40, 141.5)" /><path d="M0 53 C 28 0, 52 0, 80 53 S 132 106, 160 53 S 212 0, 240, 53" fill="none" stroke="#ddd" style="opacity:0.054666666666667;stroke-width:13px;" transform="translate(-40, 609.5)" /><path d="M0 53 C 28 0, 52 0, 80 53 S 132 106, 160 53 S 212 0, 240, 53" fill="none" stroke="#222" style="opacity:0.063333333333333;stroke-width:13px;" transform="translate(-40, 154.5)" /><path d="M0 53 C 28 0, 52 0, 80 53 S 132 106, 160 53 S 212 0, 240, 53" fill="none" stroke="#222" style="opacity:0.063333333333333;stroke-width:13px;" transform="translate(-40, 622.5)" /><path d="M0 53 C 28 0, 52 0, 80 53 S 132 106, 160 53 S 212 0, 240, 53" fill="none" stroke="#222" style="opacity:0.080666666666667;stroke-width:13px;" transform="translate(-40, 167.5)" /><path d="M0 53 C 28 0, 52 0, 80 53 S 132 106, 160 53 S 212 0, 240, 53" fill="none" stroke="#222" style="opacity:0.080666666666667;stroke-width:13px;" transform="translate(-40, 635.5)" /><path d="M0 53 C 28 0, 52 0, 80 53 S 132 106, 160 53 S 212 0, 240, 53" fill="none" stroke="#ddd" style="opacity:0.054666666666667;stroke-width:13px;" transform="translate(-40, 180.5)" /><path d="M0 53 C 28 0, 52 0, 80 53 S 132 106, 160 53 S 212 0, 240, 53" fill="none" stroke="#ddd" style="opacity:0.054666666666667;stroke-width:13px;" transform="translate(-40, 648.5)" /><path d="M0 53 C 28 0, 52 0, 80 53 S 132 106, 160 53 S 212 0, 240, 53" fill="none" stroke="#222" style="opacity:0.13266666666667;stroke-width:13px;" transform="translate(-40, 193.5)" /><path d="M0 53 C 28 0, 52 0, 80 53 S 132 106, 160 53 S 212 0, 240, 53" fill="none" stroke="#222" style="opacity:0.13266666666667;stroke-width:13px;" transform="translate(-40, 661.5)" /><path d="M0 53 C 28 0, 52 0, 80 53 S 132 106, 160 53 S 212 0, 240, 53" fill="none" stroke="#222" style="opacity:0.028666666666667;stroke-width:13px;" transform="translate(-40, 206.5)" /><path d="M0 53 C 28 0, 52 0, 80 53 S 132 106, 160 53 S 212 0, 240, 53" fill="none" stroke="#222" style="opacity:0.028666666666667;stroke-width:13px;" transform="translate(-40, 674.5)" /><path d="M0 53 C 28 0, 52 0, 80 53 S 132 106, 160 53 S 212 0, 240, 53" fill="none" stroke="#ddd" style="opacity:0.089333333333333;stroke-width:13px;" transform="translate(-40, 219.5)" /><path d="M0 53 C 28 0, 52 0, 80 53 S 132 106, 160 53 S 212 0, 240, 53" fill="none" stroke="#ddd" style="opacity:0.089333333333333;stroke-width:13px;" transform="translate(-40, 687.5)" /><path d="M0 53 C 28 0, 52 0, 80 53 S 132 106, 160 53 S 212 0, 240, 53" fill="none" stroke="#ddd" style="opacity:0.124;stroke-width:13px;" transform="translate(-40, 232.5)" /><path d="M0 53 C 28 0, 52 0, 80 53 S 132 106, 160 53 S 212 0, 240, 53" fill="none" stroke="#ddd" style="opacity:0.124;stroke-width:13px;" transform="translate(-40, 700.5)" /><path d="M0 53 C 28 0, 52 0, 80 53 S 132 106, 160 53 S 212 0, 240, 53" fill="none" stroke="#ddd" style="opacity:0.037333333333333;stroke-width:13px;" transform="translate(-40, 245.5)" /><path d="M0 53 C 28 0, 52 0, 80 53 S 132 106, 160 53 S 212 0, 240, 53" fill="none" stroke="#ddd" style="opacity:0.037333333333333;stroke-width:13px;" transform="translate(-40, 713.5)" /><path d="M0 53 C 28 0, 52 0, 80 53 S 132 106, 160 53 S 212 0, 240, 53" fill="none" stroke="#ddd" style="opacity:0.089333333333333;stroke-width:13px;" transform="translate(-40, 258.5)" /><path d="M0 53 C 28 0, 52 0, 80 53 S 132 106, 160 53 S 212 0, 240, 53" fill="none" stroke="#ddd" style="opacity:0.089333333333333;stroke-width:13px;" transform="translate(-40, 726.5)" /><path d="M0 53 C 28 0, 52 0, 80 53 S 132 106, 160 53 S 212 0, 240, 53" fill="none" stroke="#222" style="opacity:0.13266666666667;stroke-width:13px;" transform="translate(-40, 271.5)" /><path d="M0 53 C 28 0, 52 0, 80 53 S 132 106, 160 53 S 212 0, 240, 53" fill="none" stroke="#222" style="opacity:0.13266666666667;stroke-width:13px;" transform="translate(-40, 739.5)" /><path d="M0 53 C 28 0, 52 0, 80 53 S 132 106, 160 53 S 212 0, 240, 53" fill="none" stroke="#ddd" style="opacity:0.054666666666667;stroke-width:13px;" transform="translate(-40, 284.5)" /><path d="M0 53 C 28 0, 52 0, 80 53 S 132 106, 160 53 S 212 0, 240, 53" fill="none" stroke="#ddd" style="opacity:0.054666666666667;stroke-width:13px;" transform="translate(-40, 752.5)" /><path d="M0 53 C 28 0, 52 0, 80 53 S 132 106, 160 53 S 212 0, 240, 53" fill="none" stroke="#ddd" style="opacity:0.072;stroke-width:13px;" transform="translate(-40, 297.5)" /><path d="M0 53 C 28 0, 52 0, 80 53 S 132 106, 160 53 S 212 0, 240, 53" fill="none" stroke="#ddd" style="opacity:0.072;stroke-width:13px;" transform="translate(-40, 765.5)" /><path d="M0 53 C 28 0, 52 0, 80 53 S 132 106, 160 53 S 212 0, 240, 53" fill="none" stroke="#ddd" style="opacity:0.14133333333333;stroke-width:13px;" transform="translate(-40, 310.5)" /><path d="M0 53 C 28 0, 52 0, 80 53 S 132 106, 160 53 S 212 0, 240, 53" fill="none" stroke="#ddd" style="opacity:0.14133333333333;stroke-width:13px;" transform="translate(-40, 778.5)" /><path d="M0 53 C 28 0, 52 0, 80 53 S 132 106, 160 53 S 212 0, 240, 53" fill="none" stroke="#ddd" style="opacity:0.072;stroke-width:13px;" transform="translate(-40, 323.5)" /><path d="M0 53 C 28 0, 52 0, 80 53 S 132 106, 160 53 S 212 0, 240, 53" fill="none" stroke="#ddd" style="opacity:0.072;stroke-width:13px;" transform="translate(-40, 791.5)" /><path d="M0 53 C 28 0, 52 0, 80 53 S 132 106, 160 53 S 212 0, 240, 53" fill="none" stroke="#222" style="opacity:0.046;stroke-width:13px;" transform="translate(-40, 336.5)" /><path d="M0 53 C 28 0, 52 0, 80 53 S 132 106, 160 53 S 212 0, 240, 53" fill="none" stroke="#222" style="opacity:0.046;stroke-width:13px;" transform="translate(-40, 804.5)" /><path d="M0 53 C 28 0, 52 0, 80 53 S 132 106, 160 53 S 212 0, 240, 53" fill="none" stroke="#222" style="opacity:0.098;stroke-width:13px;" transform="translate(-40, 349.5)" /><path d="M0 53 C 28 0, 52 0, 80 53 S 132 106, 160 53 S 212 0, 240, 53" fill="none" stroke="#222" style="opacity:0.098;stroke-width:13px;" transform="translate(-40, 817.5)" /><path d="M0 53 C 28 0, 52 0, 80 53 S 132 106, 160 53 S 212 0, 240, 53" fill="none" stroke="#222" style="opacity:0.063333333333333;stroke-width:13px;" transform="translate(-40, 362.5)" /><path d="M0 53 C 28 0, 52 0, 80 53 S 132 106, 160 53 S 212 0, 240, 53" fill="none" stroke="#222" style="opacity:0.063333333333333;stroke-width:13px;" transform="translate(-40, 830.5)" /><path d="M0 53 C 28 0, 52 0, 80 53 S 132 106, 160 53 S 212 0, 240, 53" fill="none" stroke="#ddd" style="opacity:0.054666666666667;stroke-width:13px;" transform="translate(-40, 375.5)" /><path d="M0 53 C 28 0, 52 0, 80 53 S 132 106, 160 53 S 212 0, 240, 53" fill="none" stroke="#ddd" style="opacity:0.054666666666667;stroke-width:13px;" transform="translate(-40, 843.5)" /></svg>