<?xml version="1.0"?><svg xmlns="http://www.w3.org/2000/svg" width="134" height="154"><rect x="0" y="0" width="100%" height="100%" fill="rgb(0, 184, 148)" /><rect x="-14.166666666667" y="-14.166666666667" width="28.333333333333" height="28.333333333333" stroke="#000" stroke-opacity="0.02" fill="#ddd" fill-opacity="0.10666666666667" stroke-width="1" /><rect x="119.90810621445" y="-14.166666666667" width="28.333333333333" height="28.333333333333" stroke="#000" stroke-opacity="0.02" fill="#ddd" fill-opacity="0.10666666666667" stroke-width="1" /><rect x="-14.166666666667" y="140.64954576224" width="28.333333333333" height="28.333333333333" stroke="#000" stroke-opacity="0.02" fill="#ddd" fill-opacity="0.10666666666667" stroke-width="1" /><rect x="119.90810621445" y="140.64954576224" width="28.333333333333" height="28.333333333333" stroke="#000" stroke-opacity="0.02" fill="#ddd" fill-opacity="0.10666666666667" stroke-width="1" /><rect x="52.870719773892" y="24.537386440559" width="28.333333333333" height="28.333333333333" stroke="#000" stroke-opacity="0.02" fill="#ddd" fill-opacity="0.02" stroke-width="1" /><rect x="-14.166666666667" y="63.241439547785" width="28.333333333333" height="28.333333333333" stroke="#000" stroke-opacity="0.02" fill="#222" fill-opacity="0.080666666666667" stroke-width="1" /><rect x="119.90810621445" y="63.241439547785" width="28.333333333333" height="28.333333333333" stroke="#000" stroke-opacity="0.02" fill="#222" fill-opacity="0.080666666666667" stroke-width="1" /><rect x="52.870719773892" y="101.94549265501" width="28.333333333333" height="28.333333333333" stroke="#000" stroke-opacity="0.02" fill="#ddd" fill-opacity="0.02" stroke-width="1" /><polyline points="0, 0, 24.537386440559, 14.166666666667, 0, 28.333333333333, 0, 0" stroke="#000" stroke-opacity="0.02" fill="#ddd" fill-opacity="0.089333333333333" stroke-width="1" transform="translate(14.166666666667, -14.166666666667) rotate(0, 14.166666666667, 12.26869322028)" /><polyline points="0, 0, 24.537386440559, 14.166666666667, 0, 28.333333333333, 0, 0" stroke="#000" stroke-opacity="0.02" fill="#ddd" fill-opacity="0.089333333333333" stroke-width="1" transform="translate(14.166666666667, 168.98287909557) rotate(0, 14.166666666667, 12.26869322028) scale(1, -1)" /><polyline points="0, 0, 24.537386440559, 14.166666666667, 0, 28.333333333333, 0, 0" stroke="#000" stroke-opacity="0.02" fill="#222" fill-opacity="0.028666666666667" stroke-width="1" transform="translate(119.90810621445, -14.166666666667) rotate(0, 14.166666666667, 12.26869322028) scale(-1, 1)" /><polyline points="0, 0, 24.537386440559, 14.166666666667, 0, 28.333333333333, 0, 0" stroke="#000" stroke-opacity="0.02" fill="#222" fill-opacity="0.028666666666667" stroke-width="1" transform="translate(119.90810621445, 168.98287909557) rotate(0, 14.166666666667, 12.26869322028) scale(-1, -1)" /><polyline points="0, 0, 24.537386440559, 14.166666666667, 0, 28.333333333333, 0, 0" stroke="#000" stroke-opacity="0.02" fill="#222" fill-opacity="0.11533333333333" stroke-width="1" transform="translate(81.204053107226, 24.537386440559)" /><polyline points="0, 0, 24.537386440559, 14.166666666667, 0, 28.333333333333, 0, 0" stroke="#000" stroke-opacity="0.02" fill="#222" fill-opacity="0.098" stroke-width="1" transform="translate(52.870719773892, 24.537386440559) scale(-1, 1)" /><polyline points="0, 0, 24.537386440559, 14.166666666667, 0, 28.333333333333, 0, 0" stroke="#000" stroke-opacity="0.02" fill="#222" fill-opacity="0.028666666666667" stroke-width="1" transform="translate(81.204053107226, 130.27882598834) scale(1, -1)" /><polyline points="0, 0, 24.537386440559, 14.166666666667, 0, 28.333333333333, 0, 0" stroke="#000" stroke-opacity="0.02" fill="#ddd" fill-opacity="0.10666666666667" stroke-width="1" transform="translate(52.870719773892, 130.27882598834) scale(-1, -1)" /><polyline points="0, 0, 24.537386440559, 14.166666666667, 0, 28.333333333333, 0, 0" stroke="#000" stroke-opacity="0.02" fill="#222" fill-opacity="0.046" stroke-width="1" transform="translate(14.166666666667, 63.241439547785)" /><polyline points="0, 0, 24.537386440559, 14.166666666667, 0, 28.333333333333, 0, 0" stroke="#000" stroke-opacity="0.02" fill="#ddd" fill-opacity="0.14133333333333" stroke-width="1" transform="translate(119.90810621445, 63.241439547785) scale(-1, 1)" /><rect x="0" y="0" width="28.333333333333" height="28.333333333333" stroke="#000" stroke-opacity="0.02" fill="#222" fill-opacity="0.13266666666667" stroke-width="1" transform="translate(14.166666666667, 14.166666666667) rotate(-30, 0, 0)" /><rect x="0" y="0" width="28.333333333333" height="28.333333333333" stroke="#000" stroke-opacity="0.02" fill="#222" fill-opacity="0.098" stroke-width="1" transform="scale(-1, 1) translate(-119.90810621445, 14.166666666667) rotate(-30, 0, 0)" /><rect x="0" y="0" width="28.333333333333" height="28.333333333333" stroke="#000" stroke-opacity="0.02" fill="#ddd" fill-opacity="0.054666666666667" stroke-width="1" transform="translate(14.166666666667, 34.908106214452) rotate(30, 0, 28.333333333333)" /><rect x="0" y="0" width="28.333333333333" height="28.333333333333" stroke="#000" stroke-opacity="0.02" fill="#222" fill-opacity="0.11533333333333" stroke-width="1" transform="scale(-1, 1) translate(-119.90810621445, 34.908106214452) rotate(30, 0, 28.333333333333)" /><rect x="0" y="0" width="28.333333333333" height="28.333333333333" stroke="#000" stroke-opacity="0.02" fill="#ddd" fill-opacity="0.14133333333333" stroke-width="1" transform="scale(1, -1) translate(14.166666666667, -119.90810621445) rotate(30, 0, 28.333333333333)" /><rect x="0" y="0" width="28.333333333333" height="28.333333333333" stroke="#000" stroke-opacity="0.02" fill="#ddd" fill-opacity="0.037333333333333" stroke-width="1" transform="scale(-1, -1) translate(-119.90810621445, -119.90810621445) rotate(30, 0, 28.333333333333)" /><rect x="0" y="0" width="28.333333333333" height="28.333333333333" stroke="#000" stroke-opacity="0.02" fill="#222" fill-opacity="0.080666666666667" stroke-width="1" transform="scale(1, -1) translate(14.166666666667, -140.64954576224) rotate(-30, 0, 0)" /><rect x="0" y="0" width="28.333333333333" height="28.333333333333" stroke="#000" stroke-opacity="0.02" fill="#222" fill-opacity="0.15" stroke-width="1" transform="scale(-1, -1) translate(-119.90810621445, -140.64954576224) rotate(-30, 0, 0)" /></svg>