<svg xmlns="http://www.w3.org/2000/svg" width="203" height="203"><rect x="0" y="0" width="100%" height="100%" fill="rgb(223, 230, 233)" /><g fill="#ddd" style="opacity:0.14133333333333;" transform="translate(-33.948, -33.948) rotate(45, 33.948, 33.948)" ><rect x="24" y="0" width="24" height="72" /><rect x="0" y="24" width="72" height="24" /></g><g fill="#ddd" style="opacity:0.14133333333333;" transform="translate(169.74, -33.948) rotate(45, 33.948, 33.948)" ><rect x="24" y="0" width="24" height="72" /><rect x="0" y="24" width="72" height="24" /></g><g fill="#ddd" style="opacity:0.14133333333333;" transform="translate(-33.948, 169.74) rotate(45, 33.948, 33.948)" ><rect x="24" y="0" width="24" height="72" /><rect x="0" y="24" width="72" height="24" /></g><g fill="#ddd" style="opacity:0.14133333333333;" transform="translate(169.74, 169.74) rotate(45, 33.948, 33.948)" ><rect x="24" y="0" width="24" height="72" /><rect x="0" y="24" width="72" height="24" /></g><g fill="#ddd" style="opacity:0.054666666666667;" transform="translate(0, -16.974) rotate(45, 33.948, 33.948)" ><rect x="24" y="0" width="24" height="72" /><rect x="0" y="24" width="72" height="24" /></g><g fill="#ddd" style="opacity:0.054666666666667;" transform="translate(0, 186.714) rotate(45, 33.948, 33.948)" ><rect x="24" y="0" width="24" height="72" /><rect x="0" y="24" width="72" height="24" /></g><g fill="#ddd" style="opacity:0.054666666666667;" transform="translate(33.948, -33.948) rotate(45, 33.948, 33.948)" ><rect x="24" y="0" width="24" height="72" /><rect x="0" y="24" width="72" height="24" /></g><g fill="#ddd" style="opacity:0.054666666666667;" transform="translate(33.948, 169.74) rotate(45, 33.948, 33.948)" ><rect x="24" y="0" width="24" height="72" /><rect x="0" y="24" width="72" height="24" /></g><g fill="#222" style="opacity:0.063333333333333;" transform="translate(67.896, -16.974) rotate(45, 33.948, 33.948)" ><rect x="24" y="0" width="24" height="72" /><rect x="0" y="24" width="72" height="24" /></g><g fill="#222" style="opacity:0.063333333333333;" transform="translate(67.896, 186.714) rotate(45, 33.948, 33.948)" ><rect x="24" y="0" width="24" height="72" /><rect x="0" y="24" width="72" height="24" /></g><g fill="#ddd" style="opacity:0.089333333333333;" transform="translate(101.844, -33.948) rotate(45, 33.948, 33.948)" ><rect x="24" y="0" width="24" height="72" /><rect x="0" y="24" width="72" height="24" /></g><g fill="#ddd" style="opacity:0.089333333333333;" transform="translate(101.844, 169.74) rotate(45, 33.948, 33.948)" ><rect x="24" y="0" width="24" height="72" /><rect x="0" y="24" width="72" height="24" /></g><g fill="#222" style="opacity:0.028666666666667;" transform="translate(135.792, -16.974) rotate(45, 33.948, 33.948)" ><rect x="24" y="0" width="24" height="72" /><rect x="0" y="24" width="72" height="24" /></g><g fill="#222" style="opacity:0.028666666666667;" transform="translate(135.792, 186.714) rotate(45, 33.948, 33.948)" ><rect x="24" y="0" width="24" height="72" /><rect x="0" y="24" width="72" height="24" /></g><g fill="#ddd" style="opacity:0.10666666666667;" transform="translate(-33.948, 0) rotate(45, 33.948, 33.948)" ><rect x="24" y="0" width="24" height="72" /><rect x="0" y="24" width="72" height="24" /></g><g fill="#ddd" style="opacity:0.10666666666667;" transform="translate(169.74, 0) rotate(45, 33.948, 33.948)" ><rect x="24" y="0" width="24" height="72" /><rect x="0" y="24" width="72" height="24" /></g><g fill="#ddd" style="opacity:0.054666666666667;" transform="translate(0, 16.974) rotate(45, 33.948, 33.948)" ><rect x="24" y="0" width="24" height="72" /><rect x="0" y="24" width="72" height="24" /></g><g fill="#222" style="opacity:0.098;" transform="translate(33.948, 0) rotate(45, 33.948, 33.948)" ><rect x="24" y="0" width="24" height="72" /><rect x="0" y="24" width="72" height="24" /></g><g fill="#222" style="opacity:0.11533333333333;" transform="translate(67.896, 16.974) rotate(45, 33.948, 33.948)" ><rect x="24" y="0" width="24" height="72" /><rect x="0" y="24" width="72" height="24" /></g><g fill="#ddd" style="opacity:0.124;" transform="translate(101.844, 0) rotate(45, 33.948, 33.948)" ><rect x="24" y="0" width="24" height="72" /><rect x="0" y="24" width="72" height="24" /></g><g fill="#222" style="opacity:0.028666666666667;" transform="translate(135.792, 16.974) rotate(45, 33.948, 33.948)" ><rect x="24" y="0" width="24" height="72" /><rect x="0" y="24" width="72" height="24" /></g><g fill="#ddd" style="opacity:0.14133333333333;" transform="translate(-33.948, 33.948) rotate(45, 33.948, 33.948)" ><rect x="24" y="0" width="24" height="72" /><rect x="0" y="24" width="72" height="24" /></g><g fill="#ddd" style="opacity:0.14133333333333;" transform="translate(169.74, 33.948) rotate(45, 33.948, 33.948)" ><rect x="24" y="0" width="24" height="72" /><rect x="0" y="24" width="72" height="24" /></g><g fill="#ddd" style="opacity:0.10666666666667;" transform="translate(0, 50.922) rotate(45, 33.948, 33.948)" ><rect x="24" y="0" width="24" height="72" /><rect x="0" y="24" width="72" height="24" /></g><g fill="#222" style="opacity:0.098;" transform="translate(33.948, 33.948) rotate(45, 33.948, 33.948)" ><rect x="24" y="0" width="24" height="72" /><rect x="0" y="24" width="72" height="24" /></g><g fill="#ddd" style="opacity:0.089333333333333;" transform="translate(67.896, 50.922) rotate(45, 33.948, 33.948)" ><rect x="24" y="0" width="24" height="72" /><rect x="0" y="24" width="72" height="24" /></g><g fill="#222" style="opacity:0.11533333333333;" transform="translate(101.844, 33.948) rotate(45, 33.948, 33.948)" ><rect x="24" y="0" width="24" height="72" /><rect x="0" y="24" width="72" height="24" /></g><g fill="#222" style="opacity:0.13266666666667;" transform="translate(135.792, 50.922) rotate(45, 33.948, 33.948)" ><rect x="24" y="0" width="24" height="72" /><rect x="0" y="24" width="72" height="24" /></g><g fill="#222" style="opacity:0.046;" transform="translate(-33.948, 67.896) rotate(45, 33.948, 33.948)" ><rect x="24" y="0" width="24" height="72" /><rect x="0" y="24" width="72" height="24" /></g><g fill="#222" style="opacity:0.046;" transform="translate(169.74, 67.896) rotate(45, 33.948, 33.948)" ><rect x="24" y="0" width="24" height="72" /><rect x="0" y="24" width="72" height="24" /></g><g fill="#ddd" style="opacity:0.02;" transform="translate(0, 84.87) rotate(45, 33.948, 33.948)" ><rect x="24" y="0" width="24" height="72" /><rect x="0" y="24" width="72" height="24" /></g><g fill="#222" style="opacity:0.046;" transform="translate(33.948, 67.896) rotate(45, 33.948, 33.948)" ><rect x="24" y="0" width="24" height="72" /><rect x="0" y="24" width="72" height="24" /></g><g fill="#222" style="opacity:0.15;" transform="translate(67.896, 84.87) rotate(45, 33.948, 33.948)" ><rect x="24" y="0" width="24" height="72" /><rect x="0" y="24" width="72" height="24" /></g><g fill="#ddd" style="opacity:0.10666666666667;" transform="translate(101.844, 67.896) rotate(45, 33.948, 33.948)" ><rect x="24" y="0" width="24" height="72" /><rect x="0" y="24" width="72" height="24" /></g><g fill="#ddd" style="opacity:0.02;" transform="translate(135.792, 84.87) rotate(45, 33.948, 33.948)" ><rect x="24" y="0" width="24" height="72" /><rect x="0" y="24" width="72" height="24" /></g><g fill="#ddd" style="opacity:0.14133333333333;" transform="translate(-33.948, 101.844) rotate(45, 33.948, 33.948)" ><rect x="24" y="0" width="24" height="72" /><rect x="0" y="24" width="72" height="24" /></g><g fill="#ddd" style="opacity:0.14133333333333;" transform="translate(169.74, 101.844) rotate(45, 33.948, 33.948)" ><rect x="24" y="0" width="24" height="72" /><rect x="0" y="24" width="72" height="24" /></g><g fill="#ddd" style="opacity:0.02;" transform="translate(0, 118.818) rotate(45, 33.948, 33.948)" ><rect x="24" y="0" width="24" height="72" /><rect x="0" y="24" width="72" height="24" /></g><g fill="#222" style="opacity:0.046;" transform="translate(33.948, 101.844) rotate(45, 33.948, 33.948)" ><rect x="24" y="0" width="24" height="72" /><rect x="0" y="24" width="72" height="24" /></g><g fill="#ddd" style="opacity:0.02;" transform="translate(67.896, 118.818) rotate(45, 33.948, 33.948)" ><rect x="24" y="0" width="24" height="72" /><rect x="0" y="24" width="72" height="24" /></g><g fill="#ddd" style="opacity:0.10666666666667;" transform="translate(101.844, 101.844) rotate(45, 33.948, 33.948)" ><rect x="24" y="0" width="24" height="72" /><rect x="0" y="24" width="72" height="24" /></g><g fill="#222" style="opacity:0.028666666666667;" transform="translate(135.792, 118.818) rotate(45, 33.948, 33.948)" ><rect x="24" y="0" width="24" height="72" /><rect x="0" y="24" width="72" height="24" /></g><g fill="#ddd" style="opacity:0.14133333333333;" transform="translate(-33.948, 135.792) rotate(45, 33.948, 33.948)" ><rect x="24" y="0" width="24" height="72" /><rect x="0" y="24" width="72" height="24" /></g><g fill="#ddd" style="opacity:0.14133333333333;" transform="translate(169.74, 135.792) rotate(45, 33.948, 33.948)" ><rect x="24" y="0" width="24" height="72" /><rect x="0" y="24" width="72" height="24" /></g><g fill="#ddd" style="opacity:0.14133333333333;" transform="translate(-33.948, -67.896) rotate(45, 33.948, 33.948)" ><rect x="24" y="0" width="24" height="72" /><rect x="0" y="24" width="72" height="24" /></g><g fill="#ddd" style="opacity:0.02;" transform="translate(0, 152.766) rotate(45, 33.948, 33.948)" ><rect x="24" y="0" width="24" height="72" /><rect x="0" y="24" width="72" height="24" /></g><g fill="#ddd" style="opacity:0.02;" transform="translate(0, -50.922) rotate(45, 33.948, 33.948)" ><rect x="24" y="0" width="24" height="72" /><rect x="0" y="24" width="72" height="24" /></g><g fill="#222" style="opacity:0.063333333333333;" transform="translate(33.948, 135.792) rotate(45, 33.948, 33.948)" ><rect x="24" y="0" width="24" height="72" /><rect x="0" y="24" width="72" height="24" /></g><g fill="#222" style="opacity:0.063333333333333;" transform="translate(33.948, -67.896) rotate(45, 33.948, 33.948)" ><rect x="24" y="0" width="24" height="72" /><rect x="0" y="24" width="72" height="24" /></g><g fill="#222" style="opacity:0.13266666666667;" transform="translate(67.896, 152.766) rotate(45, 33.948, 33.948)" ><rect x="24" y="0" width="24" height="72" /><rect x="0" y="24" width="72" height="24" /></g><g fill="#222" style="opacity:0.13266666666667;" transform="translate(67.896, -50.922) rotate(45, 33.948, 33.948)" ><rect x="24" y="0" width="24" height="72" /><rect x="0" y="24" width="72" height="24" /></g><g fill="#222" style="opacity:0.13266666666667;" transform="translate(101.844, 135.792) rotate(45, 33.948, 33.948)" ><rect x="24" y="0" width="24" height="72" /><rect x="0" y="24" width="72" height="24" /></g><g fill="#222" style="opacity:0.13266666666667;" transform="translate(101.844, -67.896) rotate(45, 33.948, 33.948)" ><rect x="24" y="0" width="24" height="72" /><rect x="0" y="24" width="72" height="24" /></g><g fill="#ddd" style="opacity:0.072;" transform="translate(135.792, 152.766) rotate(45, 33.948, 33.948)" ><rect x="24" y="0" width="24" height="72" /><rect x="0" y="24" width="72" height="24" /></g><g fill="#ddd" style="opacity:0.072;" transform="translate(135.792, -50.922) rotate(45, 33.948, 33.948)" ><rect x="24" y="0" width="24" height="72" /><rect x="0" y="24" width="72" height="24" /></g></svg>