<?xml version="1.0"?><svg xmlns="http://www.w3.org/2000/svg" width="200" height="288"><rect x="0" y="0" width="100%" height="100%" fill="rgb(253, 203, 110)" /><path d="M0 58 C 35 0, 65 0, 100 58 S 165 116, 200 58 S 265 0, 300, 58" fill="none" stroke="#222" style="opacity:0.063333333333333;stroke-width:8px;" transform="translate(-50, -87)" /><path d="M0 58 C 35 0, 65 0, 100 58 S 165 116, 200 58 S 265 0, 300, 58" fill="none" stroke="#222" style="opacity:0.063333333333333;stroke-width:8px;" transform="translate(-50, 201)" /><path d="M0 58 C 35 0, 65 0, 100 58 S 165 116, 200 58 S 265 0, 300, 58" fill="none" stroke="#ddd" style="opacity:0.072;stroke-width:8px;" transform="translate(-50, -79)" /><path d="M0 58 C 35 0, 65 0, 100 58 S 165 116, 200 58 S 265 0, 300, 58" fill="none" stroke="#ddd" style="opacity:0.072;stroke-width:8px;" transform="translate(-50, 209)" /><path d="M0 58 C 35 0, 65 0, 100 58 S 165 116, 200 58 S 265 0, 300, 58" fill="none" stroke="#222" style="opacity:0.046;stroke-width:8px;" transform="translate(-50, -71)" /><path d="M0 58 C 35 0, 65 0, 100 58 S 165 116, 200 58 S 265 0, 300, 58" fill="none" stroke="#222" style="opacity:0.046;stroke-width:8px;" transform="translate(-50, 217)" /><path d="M0 58 C 35 0, 65 0, 100 58 S 165 116, 200 58 S 265 0, 300, 58" fill="none" stroke="#222" style="opacity:0.046;stroke-width:8px;" transform="translate(-50, -63)" /><path d="M0 58 C 35 0, 65 0, 100 58 S 165 116, 200 58 S 265 0, 300, 58" fill="none" stroke="#222" style="opacity:0.046;stroke-width:8px;" transform="translate(-50, 225)" /><path d="M0 58 C 35 0, 65 0, 100 58 S 165 116, 200 58 S 265 0, 300, 58" fill="none" stroke="#222" style="opacity:0.098;stroke-width:8px;" transform="translate(-50, -55)" /><path d="M0 58 C 35 0, 65 0, 100 58 S 165 116, 200 58 S 265 0, 300, 58" fill="none" stroke="#222" style="opacity:0.098;stroke-width:8px;" transform="translate(-50, 233)" /><path d="M0 58 C 35 0, 65 0, 100 58 S 165 116, 200 58 S 265 0, 300, 58" fill="none" stroke="#222" style="opacity:0.028666666666667;stroke-width:8px;" transform="translate(-50, -47)" /><path d="M0 58 C 35 0, 65 0, 100 58 S 165 116, 200 58 S 265 0, 300, 58" fill="none" stroke="#222" style="opacity:0.028666666666667;stroke-width:8px;" transform="translate(-50, 241)" /><path d="M0 58 C 35 0, 65 0, 100 58 S 165 116, 200 58 S 265 0, 300, 58" fill="none" stroke="#ddd" style="opacity:0.089333333333333;stroke-width:8px;" transform="translate(-50, -39)" /><path d="M0 58 C 35 0, 65 0, 100 58 S 165 116, 200 58 S 265 0, 300, 58" fill="none" stroke="#ddd" style="opacity:0.089333333333333;stroke-width:8px;" transform="translate(-50, 249)" /><path d="M0 58 C 35 0, 65 0, 100 58 S 165 116, 200 58 S 265 0, 300, 58" fill="none" stroke="#222" style="opacity:0.098;stroke-width:8px;" transform="translate(-50, -31)" /><path d="M0 58 C 35 0, 65 0, 100 58 S 165 116, 200 58 S 265 0, 300, 58" fill="none" stroke="#222" style="opacity:0.098;stroke-width:8px;" transform="translate(-50, 257)" /><path d="M0 58 C 35 0, 65 0, 100 58 S 165 116, 200 58 S 265 0, 300, 58" fill="none" stroke="#222" style="opacity:0.11533333333333;stroke-width:8px;" transform="translate(-50, -23)" /><path d="M0 58 C 35 0, 65 0, 100 58 S 165 116, 200 58 S 265 0, 300, 58" fill="none" stroke="#222" style="opacity:0.11533333333333;stroke-width:8px;" transform="translate(-50, 265)" /><path d="M0 58 C 35 0, 65 0, 100 58 S 165 116, 200 58 S 265 0, 300, 58" fill="none" stroke="#ddd" style="opacity:0.14133333333333;stroke-width:8px;" transform="translate(-50, -15)" /><path d="M0 58 C 35 0, 65 0, 100 58 S 165 116, 200 58 S 265 0, 300, 58" fill="none" stroke="#ddd" style="opacity:0.14133333333333;stroke-width:8px;" transform="translate(-50, 273)" /><path d="M0 58 C 35 0, 65 0, 100 58 S 165 116, 200 58 S 265 0, 300, 58" fill="none" stroke="#222" style="opacity:0.028666666666667;stroke-width:8px;" transform="translate(-50, -7)" /><path d="M0 58 C 35 0, 65 0, 100 58 S 165 116, 200 58 S 265 0, 300, 58" fill="none" stroke="#222" style="opacity:0.028666666666667;stroke-width:8px;" transform="translate(-50, 281)" /><path d="M0 58 C 35 0, 65 0, 100 58 S 165 116, 200 58 S 265 0, 300, 58" fill="none" stroke="#222" style="opacity:0.080666666666667;stroke-width:8px;" transform="translate(-50, 1)" /><path d="M0 58 C 35 0, 65 0, 100 58 S 165 116, 200 58 S 265 0, 300, 58" fill="none" stroke="#222" style="opacity:0.080666666666667;stroke-width:8px;" transform="translate(-50, 289)" /><path d="M0 58 C 35 0, 65 0, 100 58 S 165 116, 200 58 S 265 0, 300, 58" fill="none" stroke="#ddd" style="opacity:0.124;stroke-width:8px;" transform="translate(-50, 9)" /><path d="M0 58 C 35 0, 65 0, 100 58 S 165 116, 200 58 S 265 0, 300, 58" fill="none" stroke="#ddd" style="opacity:0.124;stroke-width:8px;" transform="translate(-50, 297)" /><path d="M0 58 C 35 0, 65 0, 100 58 S 165 116, 200 58 S 265 0, 300, 58" fill="none" stroke="#ddd" style="opacity:0.14133333333333;stroke-width:8px;" transform="translate(-50, 17)" /><path d="M0 58 C 35 0, 65 0, 100 58 S 165 116, 200 58 S 265 0, 300, 58" fill="none" stroke="#ddd" style="opacity:0.14133333333333;stroke-width:8px;" transform="translate(-50, 305)" /><path d="M0 58 C 35 0, 65 0, 100 58 S 165 116, 200 58 S 265 0, 300, 58" fill="none" stroke="#ddd" style="opacity:0.10666666666667;stroke-width:8px;" transform="translate(-50, 25)" /><path d="M0 58 C 35 0, 65 0, 100 58 S 165 116, 200 58 S 265 0, 300, 58" fill="none" stroke="#ddd" style="opacity:0.10666666666667;stroke-width:8px;" transform="translate(-50, 313)" /><path d="M0 58 C 35 0, 65 0, 100 58 S 165 116, 200 58 S 265 0, 300, 58" fill="none" stroke="#222" style="opacity:0.028666666666667;stroke-width:8px;" transform="translate(-50, 33)" /><path d="M0 58 C 35 0, 65 0, 100 58 S 165 116, 200 58 S 265 0, 300, 58" fill="none" stroke="#222" style="opacity:0.028666666666667;stroke-width:8px;" transform="translate(-50, 321)" /><path d="M0 58 C 35 0, 65 0, 100 58 S 165 116, 200 58 S 265 0, 300, 58" fill="none" stroke="#222" style="opacity:0.028666666666667;stroke-width:8px;" transform="translate(-50, 41)" /><path d="M0 58 C 35 0, 65 0, 100 58 S 165 116, 200 58 S 265 0, 300, 58" fill="none" stroke="#222" style="opacity:0.028666666666667;stroke-width:8px;" transform="translate(-50, 329)" /><path d="M0 58 C 35 0, 65 0, 100 58 S 165 116, 200 58 S 265 0, 300, 58" fill="none" stroke="#222" style="opacity:0.11533333333333;stroke-width:8px;" transform="translate(-50, 49)" /><path d="M0 58 C 35 0, 65 0, 100 58 S 165 116, 200 58 S 265 0, 300, 58" fill="none" stroke="#222" style="opacity:0.11533333333333;stroke-width:8px;" transform="translate(-50, 337)" /><path d="M0 58 C 35 0, 65 0, 100 58 S 165 116, 200 58 S 265 0, 300, 58" fill="none" stroke="#ddd" style="opacity:0.10666666666667;stroke-width:8px;" transform="translate(-50, 57)" /><path d="M0 58 C 35 0, 65 0, 100 58 S 165 116, 200 58 S 265 0, 300, 58" fill="none" stroke="#ddd" style="opacity:0.10666666666667;stroke-width:8px;" transform="translate(-50, 345)" /><path d="M0 58 C 35 0, 65 0, 100 58 S 165 116, 200 58 S 265 0, 300, 58" fill="none" stroke="#222" style="opacity:0.080666666666667;stroke-width:8px;" transform="translate(-50, 65)" /><path d="M0 58 C 35 0, 65 0, 100 58 S 165 116, 200 58 S 265 0, 300, 58" fill="none" stroke="#222" style="opacity:0.080666666666667;stroke-width:8px;" transform="translate(-50, 353)" /><path d="M0 58 C 35 0, 65 0, 100 58 S 165 116, 200 58 S 265 0, 300, 58" fill="none" stroke="#ddd" style="opacity:0.054666666666667;stroke-width:8px;" transform="translate(-50, 73)" /><path d="M0 58 C 35 0, 65 0, 100 58 S 165 116, 200 58 S 265 0, 300, 58" fill="none" stroke="#ddd" style="opacity:0.054666666666667;stroke-width:8px;" transform="translate(-50, 361)" /><path d="M0 58 C 35 0, 65 0, 100 58 S 165 116, 200 58 S 265 0, 300, 58" fill="none" stroke="#222" style="opacity:0.080666666666667;stroke-width:8px;" transform="translate(-50, 81)" /><path d="M0 58 C 35 0, 65 0, 100 58 S 165 116, 200 58 S 265 0, 300, 58" fill="none" stroke="#222" style="opacity:0.080666666666667;stroke-width:8px;" transform="translate(-50, 369)" /><path d="M0 58 C 35 0, 65 0, 100 58 S 165 116, 200 58 S 265 0, 300, 58" fill="none" stroke="#ddd" style="opacity:0.14133333333333;stroke-width:8px;" transform="translate(-50, 89)" /><path d="M0 58 C 35 0, 65 0, 100 58 S 165 116, 200 58 S 265 0, 300, 58" fill="none" stroke="#ddd" style="opacity:0.14133333333333;stroke-width:8px;" transform="translate(-50, 377)" /><path d="M0 58 C 35 0, 65 0, 100 58 S 165 116, 200 58 S 265 0, 300, 58" fill="none" stroke="#ddd" style="opacity:0.037333333333333;stroke-width:8px;" transform="translate(-50, 97)" /><path d="M0 58 C 35 0, 65 0, 100 58 S 165 116, 200 58 S 265 0, 300, 58" fill="none" stroke="#ddd" style="opacity:0.037333333333333;stroke-width:8px;" transform="translate(-50, 385)" /><path d="M0 58 C 35 0, 65 0, 100 58 S 165 116, 200 58 S 265 0, 300, 58" fill="none" stroke="#222" style="opacity:0.11533333333333;stroke-width:8px;" transform="translate(-50, 105)" /><path d="M0 58 C 35 0, 65 0, 100 58 S 165 116, 200 58 S 265 0, 300, 58" fill="none" stroke="#222" style="opacity:0.11533333333333;stroke-width:8px;" transform="translate(-50, 393)" /><path d="M0 58 C 35 0, 65 0, 100 58 S 165 116, 200 58 S 265 0, 300, 58" fill="none" stroke="#222" style="opacity:0.13266666666667;stroke-width:8px;" transform="translate(-50, 113)" /><path d="M0 58 C 35 0, 65 0, 100 58 S 165 116, 200 58 S 265 0, 300, 58" fill="none" stroke="#222" style="opacity:0.13266666666667;stroke-width:8px;" transform="translate(-50, 401)" /><path d="M0 58 C 35 0, 65 0, 100 58 S 165 116, 200 58 S 265 0, 300, 58" fill="none" stroke="#222" style="opacity:0.13266666666667;stroke-width:8px;" transform="translate(-50, 121)" /><path d="M0 58 C 35 0, 65 0, 100 58 S 165 116, 200 58 S 265 0, 300, 58" fill="none" stroke="#222" style="opacity:0.13266666666667;stroke-width:8px;" transform="translate(-50, 409)" /><path d="M0 58 C 35 0, 65 0, 100 58 S 165 116, 200 58 S 265 0, 300, 58" fill="none" stroke="#ddd" style="opacity:0.02;stroke-width:8px;" transform="translate(-50, 129)" /><path d="M0 58 C 35 0, 65 0, 100 58 S 165 116, 200 58 S 265 0, 300, 58" fill="none" stroke="#ddd" style="opacity:0.02;stroke-width:8px;" transform="translate(-50, 417)" /><path d="M0 58 C 35 0, 65 0, 100 58 S 165 116, 200 58 S 265 0, 300, 58" fill="none" stroke="#ddd" style="opacity:0.037333333333333;stroke-width:8px;" transform="translate(-50, 137)" /><path d="M0 58 C 35 0, 65 0, 100 58 S 165 116, 200 58 S 265 0, 300, 58" fill="none" stroke="#ddd" style="opacity:0.037333333333333;stroke-width:8px;" transform="translate(-50, 425)" /><path d="M0 58 C 35 0, 65 0, 100 58 S 165 116, 200 58 S 265 0, 300, 58" fill="none" stroke="#222" style="opacity:0.11533333333333;stroke-width:8px;" transform="translate(-50, 145)" /><path d="M0 58 C 35 0, 65 0, 100 58 S 165 116, 200 58 S 265 0, 300, 58" fill="none" stroke="#222" style="opacity:0.11533333333333;stroke-width:8px;" transform="translate(-50, 433)" /><path d="M0 58 C 35 0, 65 0, 100 58 S 165 116, 200 58 S 265 0, 300, 58" fill="none" stroke="#222" style="opacity:0.11533333333333;stroke-width:8px;" transform="translate(-50, 153)" /><path d="M0 58 C 35 0, 65 0, 100 58 S 165 116, 200 58 S 265 0, 300, 58" fill="none" stroke="#222" style="opacity:0.11533333333333;stroke-width:8px;" transform="translate(-50, 441)" /><path d="M0 58 C 35 0, 65 0, 100 58 S 165 116, 200 58 S 265 0, 300, 58" fill="none" stroke="#222" style="opacity:0.063333333333333;stroke-width:8px;" transform="translate(-50, 161)" /><path d="M0 58 C 35 0, 65 0, 100 58 S 165 116, 200 58 S 265 0, 300, 58" fill="none" stroke="#222" style="opacity:0.063333333333333;stroke-width:8px;" transform="translate(-50, 449)" /><path d="M0 58 C 35 0, 65 0, 100 58 S 165 116, 200 58 S 265 0, 300, 58" fill="none" stroke="#ddd" style="opacity:0.072;stroke-width:8px;" transform="translate(-50, 169)" /><path d="M0 58 C 35 0, 65 0, 100 58 S 165 116, 200 58 S 265 0, 300, 58" fill="none" stroke="#ddd" style="opacity:0.072;stroke-width:8px;" transform="translate(-50, 457)" /><path d="M0 58 C 35 0, 65 0, 100 58 S 165 116, 200 58 S 265 0, 300, 58" fill="none" stroke="#222" style="opacity:0.098;stroke-width:8px;" transform="translate(-50, 177)" /><path d="M0 58 C 35 0, 65 0, 100 58 S 165 116, 200 58 S 265 0, 300, 58" fill="none" stroke="#222" style="opacity:0.098;stroke-width:8px;" transform="translate(-50, 465)" /><path d="M0 58 C 35 0, 65 0, 100 58 S 165 116, 200 58 S 265 0, 300, 58" fill="none" stroke="#222" style="opacity:0.098;stroke-width:8px;" transform="translate(-50, 185)" /><path d="M0 58 C 35 0, 65 0, 100 58 S 165 116, 200 58 S 265 0, 300, 58" fill="none" stroke="#222" style="opacity:0.098;stroke-width:8px;" transform="translate(-50, 473)" /><path d="M0 58 C 35 0, 65 0, 100 58 S 165 116, 200 58 S 265 0, 300, 58" fill="none" stroke="#222" style="opacity:0.15;stroke-width:8px;" transform="translate(-50, 193)" /><path d="M0 58 C 35 0, 65 0, 100 58 S 165 116, 200 58 S 265 0, 300, 58" fill="none" stroke="#222" style="opacity:0.15;stroke-width:8px;" transform="translate(-50, 481)" /></svg>